<?xml version="1.0" encoding="UTF-8"?>
<!DOCTYPE svg PUBLIC "-//W3C//DTD SVG 1.1//EN" "http://www.w3.org/Graphics/SVG/1.1/DTD/svg11.dtd">
<!-- Creator: CorelDRAW 2020 (64-Bit) -->
<svg xmlns="http://www.w3.org/2000/svg" xml:space="preserve" width="50px" height="50px" version="1.1" style="shape-rendering:geometricPrecision; text-rendering:geometricPrecision; image-rendering:optimizeQuality; fill-rule:evenodd; clip-rule:evenodd"
viewBox="0 0 50 50"
 xmlns:xlink="http://www.w3.org/1999/xlink"
 xmlns:xodm="http://www.corel.com/coreldraw/odm/2003">
 <defs>
  <style type="text/css">
   <![CDATA[
    .str0 {stroke:#0062AD;stroke-width:1;stroke-miterlimit:2.61313}
    .fil2 {fill:white}
    .fil0 {fill:#0062AD;fill-rule:nonzero}
    .fil1 {fill:#B5FDFF;fill-rule:nonzero}
   ]]>
  </style>
 </defs>
 <g id="Layer_x0020_1">
  <metadata id="CorelCorpID_0Corel-Layer"/>
  <path class="fil0" d="M40.17 10.23c-3.78,-3.79 -9,-6.12 -14.77,-6.12 -5.77,0 -10.99,2.33 -14.78,6.12 -3.78,3.78 -6.12,9 -6.12,14.77 0,5.77 2.34,10.99 6.12,14.78 3.79,3.78 9.01,6.12 14.78,6.12 5.77,0 10.99,-2.34 14.77,-6.12 3.79,-3.79 6.12,-9.01 6.12,-14.78 0,-5.77 -2.33,-10.99 -6.12,-14.77z"/>
  <path class="fil0" d="M25.4 0c6.9,0 13.15,2.8 17.68,7.32 4.52,4.53 7.32,10.78 7.32,17.68 0,6.9 -2.8,13.15 -7.32,17.68 -4.53,4.52 -10.78,7.32 -17.68,7.32 -6.9,0 -13.16,-2.8 -17.68,-7.32 -4.52,-4.53 -7.32,-10.78 -7.32,-17.68 0,-6.9 2.8,-13.15 7.32,-17.68 4.52,-4.52 10.78,-7.32 17.68,-7.32l0 0z"/>
  <g id="_1764535666160">
   <path class="fil1" d="M25.4 2.71c6.15,0 11.73,2.5 15.76,6.53 4.03,4.03 6.53,9.61 6.53,15.76 0,6.15 -2.5,11.73 -6.53,15.76 -4.03,4.03 -9.61,6.53 -15.76,6.53 -6.16,0 -11.73,-2.5 -15.76,-6.53 -4.03,-4.03 -6.53,-9.61 -6.53,-15.76 0,-6.15 2.5,-11.73 6.53,-15.76 4.03,-4.03 9.6,-6.53 15.76,-6.53l0 0zm14.77 7.52c-3.78,-3.79 -9,-6.12 -14.77,-6.12 -5.77,0 -10.99,2.33 -14.78,6.12 -3.78,3.78 -6.12,9 -6.12,14.77 0,5.77 2.34,10.99 6.12,14.78 3.79,3.78 9.01,6.12 14.78,6.12 5.77,0 10.99,-2.34 14.77,-6.12 3.79,-3.79 6.12,-9.01 6.12,-14.78 0,-5.77 -2.33,-10.99 -6.12,-14.77z"/>
   <path class="fil1" d="M25 2.71c2.42,0 4.55,2.6 6.03,6.79 1.4,3.98 2.26,9.46 2.26,15.5 0,6.04 -0.86,11.52 -2.26,15.5 -1.48,4.19 -3.61,6.79 -6.03,6.79 -2.43,0 -4.55,-2.6 -6.03,-6.79 -1.4,-3.98 -2.27,-9.46 -2.27,-15.5 0,-6.04 0.87,-11.52 2.27,-15.5 1.48,-4.19 3.6,-6.79 6.03,-6.79l0 0zm4.72 7.25c-1.28,-3.62 -2.95,-5.85 -4.72,-5.85 -1.77,0 -3.44,2.23 -4.72,5.85 -1.35,3.84 -2.18,9.15 -2.18,15.04 0,5.89 0.83,11.2 2.18,15.04 1.28,3.62 2.95,5.86 4.72,5.86 1.77,0 3.44,-2.24 4.72,-5.86 1.35,-3.84 2.18,-9.15 2.18,-15.04 0,-5.89 -0.83,-11.2 -2.18,-15.04z"/>
   <path class="fil1" d="M25 2.71c4.75,0 9.05,2.52 12.14,6.6 3.06,4.03 4.95,9.58 4.95,15.69 0,6.12 -1.89,11.66 -4.95,15.69 -3.09,4.08 -7.39,6.6 -12.14,6.6 -4.76,0 -9.05,-2.52 -12.15,-6.6 -3.05,-4.03 -4.94,-9.57 -4.94,-15.69 0,-6.11 1.89,-11.66 4.94,-15.69 3.1,-4.08 7.39,-6.6 12.15,-6.6l0 0zm11.04 7.44c-2.84,-3.73 -6.74,-6.04 -11.04,-6.04 -4.3,0 -8.2,2.31 -11.04,6.04 -2.88,3.79 -4.66,9.04 -4.66,14.85 0,5.81 1.78,11.06 4.66,14.85 2.84,3.74 6.74,6.05 11.04,6.05 4.3,0 8.2,-2.31 11.04,-6.05 2.88,-3.79 4.66,-9.04 4.66,-14.85 0,-5.81 -1.78,-11.06 -4.66,-14.85z"/>
   <path class="fil1" d="M8.24 12.9c-0.33,-0.2 -0.75,-0.1 -0.95,0.23 -0.21,0.33 -0.1,0.75 0.22,0.95 4.12,2.55 11.02,3.82 17.89,3.82 6.87,0 13.76,-1.27 17.89,-3.82 0.32,-0.2 0.42,-0.62 0.22,-0.95 -0.2,-0.33 -0.63,-0.43 -0.95,-0.23 -3.9,2.41 -10.52,3.61 -17.16,3.61 -6.65,0 -13.27,-1.2 -17.16,-3.61z"/>
   <path class="fil1" d="M7.51 35.92c-0.32,0.2 -0.43,0.63 -0.22,0.95 0.2,0.33 0.62,0.43 0.95,0.23 3.89,-2.41 10.51,-3.61 17.16,-3.61 6.64,0 13.26,1.2 17.16,3.61 0.32,0.2 0.75,0.1 0.95,-0.23 0.2,-0.32 0.1,-0.75 -0.22,-0.95 -4.13,-2.55 -11.02,-3.82 -17.89,-3.82 -6.87,0 -13.77,1.27 -17.89,3.82z"/>
   <path class="fil1" d="M3.81 24.3c-0.39,0 -0.7,0.32 -0.7,0.7 0,0.39 0.31,0.7 0.7,0.7l43.18 0c0.39,0 0.7,-0.31 0.7,-0.7 0,-0.38 -0.31,-0.7 -0.7,-0.7l-43.18 0z"/>
  </g>
  <path class="fil2 str0" d="M19.43 19.23c2.59,-0.82 5.13,-1.65 7.6,-2.44 2.41,-0.77 4.77,-1.54 7.07,-2.27 -1.19,1.71 -2.37,3.41 -3.55,5.11 -2.64,0.9 -5.33,1.82 -8.1,2.77 -0.67,0.98 -1.34,1.95 -2,2.93 2.79,-0.99 5.51,-1.94 8.16,-2.88 -1.12,1.71 -2.22,3.41 -3.31,5.1 -2.77,1.03 -5.61,2.08 -8.52,3.17 -0.91,1.35 -1.84,2.7 -2.75,4.04 -0.91,1.34 -1.83,2.67 -2.74,4 -2.27,0.91 -4.6,1.85 -6.96,2.78 1.22,-1.81 2.46,-3.65 3.71,-5.49 1.24,-1.84 2.5,-3.71 3.76,-5.57 1.26,-1.85 2.54,-3.72 3.8,-5.59 1.28,-1.88 2.55,-3.76 3.83,-5.66zm27.84 -9.62c-1.22,1.75 -2.41,3.47 -3.6,5.19 -1.18,1.7 -2.37,3.4 -3.54,5.1 -1.18,1.7 -2.35,3.4 -3.52,5.09 -1.16,1.68 -2.33,3.37 -3.49,5.05 -1.82,0.72 -3.65,1.46 -5.53,2.21 1.18,-1.73 2.37,-3.45 3.57,-5.18 1.19,-1.74 2.39,-3.48 3.6,-5.23 -1.1,0.88 -2.19,1.76 -3.3,2.65 -0.58,-0.6 -1.16,-1.22 -1.76,-1.84 3.05,-2.26 6.06,-4.49 9,-6.67 2.89,-2.16 5.74,-4.27 8.57,-6.37z"/>
 </g>
</svg>
